<svg xmlns="http://www.w3.org/2000/svg" xmlns:svg="http://www.w3.org/2000/svg" id="svg2" width="48" height="48" version="1.1" viewBox="0 0 48 48"><metadata id="metadata7"/><g id="layer1" transform="translate(-384,-1004.3622)" style="display:inline"><path style="color:#000;display:inline;overflow:visible;visibility:visible;opacity:1;fill:#747474;fill-opacity:1;fill-rule:nonzero;stroke:none;stroke-width:5.61248589;stroke-linecap:round;stroke-linejoin:round;stroke-miterlimit:4;stroke-dasharray:none;stroke-dashoffset:0;stroke-opacity:1;marker:none;enable-background:accumulate" id="rect6972" d="m 10,6 v 6 8 h 6 v -8 h 16 v 4 h -5 l 8,8 8,-8 H 38 V 12 6 Z m 1,22 c -2.2091397,0 -4.000001,1.790861 -4,4 v 12 h 4 v -4 h 4 v 4 h 4 V 32 c 0,-2.20914 -1.790861,-4.000001 -4,-4 z m 1,3 h 2 c 0.552285,0 1,0.447715 1,1 v 5 h -4 v -5 c 0,-0.552285 0.447715,-1 1,-1 z" transform="translate(384,1004.3622)"/></g></svg>