<svg xmlns="http://www.w3.org/2000/svg" xmlns:svg="http://www.w3.org/2000/svg" id="svg2" width="48" height="48" version="1.1" viewBox="0 0 48 48"><metadata id="metadata7"/><g id="layer1" transform="translate(-384,-1004.3622)" style="display:inline"><path style="color:#000;display:inline;overflow:visible;visibility:visible;opacity:1;fill:#747474;fill-opacity:1;fill-rule:nonzero;stroke:none;stroke-width:5.61248589;stroke-linecap:round;stroke-linejoin:round;stroke-miterlimit:4;stroke-dasharray:none;stroke-dashoffset:0;stroke-opacity:1;marker:none;enable-background:accumulate" id="rect6972" d="m 10,6 v 6 8 h 6 v -8 h 16 v 4 h -5 l 8,8 8,-8 H 38 V 12 6 Z m 19,22 v 16 h 9 c 1.65685,0 3,-1.3431 3,-3 v -2 c 0,-1.6568 -1.34315,-3 -3,-3 h -1 c 1.656855,0 3.000001,-1.343146 3,-3 v -2 c 0,-1.6568 -1.34315,-3 -3,-3 z m 4,3 h 2 c 0.55228,0 1,0.4478 1,1 v 1.5 c 0,0.5523 -0.44772,1 -1,1 h -2 z m 0,6.5 h 3 c 0.55228,0 1,0.4478 1,1 V 40 c 0,0.5523 -0.44772,1 -1,1 h -3 z" transform="translate(384,1004.3622)"/></g></svg>