<svg xmlns="http://www.w3.org/2000/svg" xmlns:svg="http://www.w3.org/2000/svg" id="svg3428" width="48" height="48" version="1.1" viewBox="0 0 48 48"><metadata id="metadata3433"/><g id="layer1" transform="translate(0,-1004.3622)"><path style="color:#000;display:inline;overflow:visible;visibility:visible;fill:#747474;fill-opacity:1;fill-rule:nonzero;stroke:none;stroke-width:.9186148;marker:none;enable-background:accumulate" id="path6367" d="m 12.946675,1008.6135 c -4.0713009,0 -7.3489184,3.2776 -7.3489184,7.3489 v 14.6979 c 0,4.0713 3.2776175,7.3489 7.3489184,7.3489 h 10.61 l -2.572121,9.3239 a 1.102448,0.99666884 0 0 0 1.860379,0.9646 l 11.367672,-10.2885 h 0.780823 c 4.071301,0 7.348918,-3.2776 7.348918,-7.3489 v -14.6979 c 0,-4.0713 -3.277617,-7.3489 -7.348918,-7.3489 z m -2.939567,5.5117 h 27.925887 c 0.40713,0 0.734892,0.3261 0.734892,0.7349 v 2.2047 c 0,0.4087 -0.327027,0.7348 -0.734892,0.7348 H 10.007108 c -0.4071305,0 -0.7348923,-0.3261 -0.7348923,-0.7348 v -2.2047 c 0,-0.4088 0.3270269,-0.7349 0.7348923,-0.7349 z m 0,7.3489 h 15.432728 c 0.40713,0 0.734891,0.3261 0.734891,0.7349 v 2.2047 c 0,0.4088 -0.327026,0.7349 -0.734891,0.7349 H 10.007108 c -0.4071305,0 -0.7348923,-0.3261 -0.7348923,-0.7349 v -2.2047 c 0,-0.4088 0.3270269,-0.7349 0.7348923,-0.7349 z m 20.57697,0 h 7.348917 c 0.40713,0 0.734892,0.3261 0.734892,0.7349 v 2.2047 c 0,0.4088 -0.327027,0.7349 -0.734892,0.7349 h -7.348917 c -0.40713,0 -0.734891,-0.3261 -0.734891,-0.7349 v -2.2047 c 0,-0.4088 0.327026,-0.7349 0.734891,-0.7349 z m -20.57697,7.3489 h 20.57697 c 0.40713,0 0.734892,0.3261 0.734892,0.7349 v 2.2047 c 0,0.4088 -0.327027,0.7349 -0.734892,0.7349 h -20.57697 c -0.4071305,0 -0.7348923,-0.3261 -0.7348923,-0.7349 v -2.2047 c 0,-0.4088 0.3270269,-0.7349 0.7348923,-0.7349 z m 25.721212,0 h 2.204675 c 0.40713,0 0.734892,0.3261 0.734892,0.7349 v 2.2047 c 0,0.4088 -0.327027,0.7349 -0.734892,0.7349 H 35.72832 c -0.40713,0 -0.734892,-0.3261 -0.734892,-0.7349 v -2.2047 c 0,-0.4088 0.327027,-0.7349 0.734892,-0.7349 z"/></g></svg>