<svg xmlns="http://www.w3.org/2000/svg" xmlns:svg="http://www.w3.org/2000/svg" id="svg2" width="48" height="48" version="1.1" viewBox="0 0 48 48"><metadata id="metadata7"/><g id="layer1" transform="translate(-384,-1004.3622)" style="display:inline"><g id="g865" transform="matrix(0.76814669,-0.76814669,0.76814669,0.76814669,-724.83005,586.25529)"><path id="path821-6" d="m 451.88477,1031.3622 c -0.94341,0.19 -1.90291,0.2888 -2.86524,0.2949 -0.6758,0 -1.35051,-0.055 -2.01953,-0.1504 v 17.0801 c 2.1026,1.3268 3.52224,0.6995 4.88477,0 z" style="display:inline;fill:#000;fill-opacity:1;stroke:none;stroke-width:1.13385785;stroke-miterlimit:4;stroke-dasharray:none;stroke-opacity:1"/><path id="path821" d="M 65.423828,0.10351562 A 12.986558,12.986558 0 0 0 52.503906,13.136719 12.986558,12.986558 0 0 0 65.513672,26.078125 12.986558,12.986558 0 0 0 78.478516,13.089844 V 13 A 12.986558,12.986558 0 0 0 65.423828,0.10351562 Z M 65.443359,3.0625 A 10.006896,10.006896 0 0 1 75.501953,13 v 0.07031 A 10.006896,10.006896 0 0 1 65.513672,23.076172 10.006896,10.006896 0 0 1 55.488281,13.105469 10.006896,10.006896 0 0 1 65.443359,3.0625 Z" transform="translate(384,1004.3622)" style="fill:#000;fill-opacity:1;stroke:none;stroke-width:.98166108;stroke-miterlimit:4;stroke-dasharray:none;stroke-opacity:1"/></g></g></svg>