<svg xmlns="http://www.w3.org/2000/svg" xmlns:svg="http://www.w3.org/2000/svg" id="svg2" width="48" height="48" version="1.1" viewBox="0 0 48 48"><metadata id="metadata7"/><g id="layer1" transform="translate(-384,-1004.3622)" style="display:inline"><path style="color:#000;display:inline;overflow:visible;visibility:visible;opacity:1;fill:#ff950d;fill-opacity:1;fill-rule:evenodd;stroke:none;stroke-width:3.54299998;stroke-linecap:round;stroke-linejoin:round;stroke-miterlimit:4;stroke-dasharray:none;stroke-dashoffset:0;stroke-opacity:1;marker:none;enable-background:accumulate" id="path6279" d="m 408.00001,1008.3622 a 20,20 0 0 0 -20,20 20,20 0 0 0 20,20 20,20 0 0 0 20,-20 20,20 0 0 0 -20,-20 z m -0.0332,7.6562 c 2.73743,10e-5 4.91365,0.7154 6.53125,2.1446 1.61756,1.418 2.42771,3.0723 2.42773,4.9629 -2e-5,1.0466 -0.30088,2.0366 -0.90039,2.9707 -0.58822,0.934 -1.85518,2.2052 -3.80078,3.8144 -1.00676,0.8328 -1.63397,1.5034 -1.88281,2.0098 -0.23756,0.5064 -0.3449,0.1614 -0.32227,1.4668 h -4.32812 c -0.0113,-0.619 -0.0156,-0.9958 -0.0156,-1.1309 -10e-6,-1.3954 0.23152,-1.293 0.69531,-2.1933 0.46377,-0.9003 1.39185,-1.9137 2.7832,-3.0391 1.39133,-1.1253 2.22265,-1.8621 2.49415,-2.2109 0.41851,-0.5514 0.62693,-1.1603 0.62695,-1.8243 -2e-5,-0.9227 -0.37258,-1.7105 -1.11914,-2.3632 -0.73528,-0.664 -1.73074,-0.9942 -2.98633,-0.9942 -1.21037,0 -2.22267,0.3429 -3.03711,1.0293 -0.81445,0.6865 -1.37428,1.4195 -1.67969,2.8262 l -4.3789,-0.2266 c 0.12442,-2.0144 0.98512,-3.7261 2.58007,-5.1328 1.60627,-1.4067 3.7108,-2.1093 6.3125,-2.1094 z m -2.27539,20.0997 h 4.76953 v 4.7441 h -4.76953 z"/></g></svg>