<svg xmlns="http://www.w3.org/2000/svg" xmlns:svg="http://www.w3.org/2000/svg" id="svg5502" width="48" height="48" version="1.1" viewBox="0 0 48 48"><metadata id="metadata5499"/><g id="layer1" transform="translate(-96.459526,-120.56071)"><path id="path11123" d="m 115.56109,129.86735 a 15.500005,15.49999 0 0 0 -10.60158,14.69336 h 9.50004 a 6.0000019,5.9999974 0 0 1 4.10543,-5.68554 z m 10.89846,14.69336 a 6.0000019,5.9999974 0 0 1 -4.10547,5.68554 l 3.00389,9.00782 a 15.500005,15.49999 0 0 0 10.60158,-14.69336 z" style="color:#000;display:inline;overflow:visible;visibility:visible;opacity:1;fill:#ff950d;fill-opacity:1;fill-rule:evenodd;stroke:none;stroke-width:5.99999905;stroke-linecap:butt;stroke-linejoin:round;stroke-miterlimit:4;stroke-dasharray:none;stroke-dashoffset:4.19999981;stroke-opacity:1;marker:none;enable-background:accumulate"/><path id="path11125" d="m 120.45955,124.56071 a 20.000006,19.999988 0 0 0 -20.00002,20 20.000006,19.999988 0 0 0 20.00002,20 20.000006,19.999988 0 0 0 19.99998,-20 20.000006,19.999988 0 0 0 -19.99998,-20 z m 0,3 a 17.000005,16.999989 0 0 1 16.99998,17 17.000005,16.999989 0 0 1 -16.99998,17 17.000005,16.999989 0 0 1 -17.00002,-17 17.000005,16.999989 0 0 1 17.00002,-17 z" style="color:#000;display:inline;overflow:visible;visibility:visible;opacity:1;fill:#747474;fill-opacity:1;fill-rule:evenodd;stroke:none;stroke-width:5.99999905;stroke-linecap:butt;stroke-linejoin:round;stroke-miterlimit:4;stroke-dasharray:none;stroke-dashoffset:4.19999981;stroke-opacity:1;marker:none;enable-background:accumulate"/><ellipse id="ellipse11127" cx="120.459" cy="144.561" rx="4.5" ry="4.5" style="color:#000;display:inline;overflow:visible;visibility:visible;opacity:1;fill:#747474;fill-opacity:1;fill-rule:evenodd;stroke:none;stroke-width:5.99999905;stroke-linecap:butt;stroke-linejoin:round;stroke-miterlimit:4;stroke-dasharray:none;stroke-dashoffset:4.19999981;stroke-opacity:1;marker:none;enable-background:accumulate"/></g></svg>