<svg xmlns="http://www.w3.org/2000/svg" xmlns:svg="http://www.w3.org/2000/svg" id="svg5502" width="48" height="48" version="1.1" viewBox="0 0 48 48"><metadata id="metadata5499"/><g id="layer1" transform="translate(-96.459526,-120.56071)"><path style="color:#000;display:inline;overflow:visible;visibility:visible;opacity:1;fill:#ff950d;fill-opacity:1;fill-rule:evenodd;stroke:none;stroke-width:4;stroke-linecap:butt;stroke-linejoin:round;stroke-miterlimit:4;stroke-dasharray:none;stroke-dashoffset:4.19999981;stroke-opacity:1;marker:none;enable-background:accumulate" id="path11233" d="m 119.4595,124.56071 a 15.000012,3.9999974 0 0 0 -14.99997,4.00002 v 6 a 15.000012,3.9999974 0 0 0 14.99997,3.99998 15.000012,3.9999974 0 0 0 15.00002,-3.99998 v -6 a 15.000012,3.9999974 0 0 0 -15.00002,-4.00002 z m -14.99997,14 v 6 a 15.000012,3.9999974 0 0 0 7.99998,3.53514 v -6 a 15.000012,3.9999974 0 0 1 -7.99998,-3.53514 z m 0,9.99998 v 6 a 15.000012,3.9999974 0 0 0 7.99998,3.53518 v -6 a 15.000012,3.9999974 0 0 1 -7.99998,-3.53518 z"/><path style="color:#000;display:inline;overflow:visible;visibility:visible;opacity:1;fill:#747474;fill-opacity:1;fill-rule:evenodd;stroke:none;stroke-width:4;stroke-linecap:butt;stroke-linejoin:round;stroke-miterlimit:4;stroke-dasharray:none;stroke-dashoffset:4.19999981;stroke-opacity:1;marker:none;enable-background:accumulate" id="rect11214" d="m 115.45951,140.56073 v 23.99998 h 3.00001 v -3.50003 h 3.99999 v 3.50003 h 14.00002 v -23.99998 h -14.00002 v 3.49999 h -3.99999 v -3.49999 z m 13,1.99997 h 6.00001 v 3 h -3.00001 v 13.50001 a 3.5000028,3.4999978 0 0 1 -3.49999,3.49999 3.5000028,3.4999978 0 0 1 -3.5,-3.49999 3.5000028,3.4999978 0 0 1 3.5,-3.49999 3.5000028,3.4999978 0 0 1 0.49999,0.0408 v -10.04098 z m -9.99999,4.50001 h 3.99999 v 3.99999 h -3.99999 z m 0,6.99999 h 3.99999 v 3.99998 h -3.99999 z"/></g></svg>