<svg xmlns="http://www.w3.org/2000/svg" xmlns:svg="http://www.w3.org/2000/svg" id="svg5502" width="48" height="48" version="1.1" viewBox="0 0 48 48"><metadata id="metadata5499"/><g id="layer1" transform="translate(-96.459526,-120.56071)"><path style="color:#000;display:inline;overflow:visible;visibility:visible;opacity:1;fill:#ff950d;fill-opacity:1;fill-rule:evenodd;stroke:none;stroke-width:3.00000024;stroke-linecap:butt;stroke-linejoin:round;stroke-miterlimit:4;stroke-dasharray:none;stroke-dashoffset:4.19999981;stroke-opacity:1;marker:none;enable-background:accumulate" id="ellipse9978" d="m 122.24623,124.56071 -1.00029,2.85883 a 18.182907,18.182881 0 0 1 12.18309,17.14117 18.182907,18.182881 0 0 1 -12.18309,17.14313 l 1.00029,2.85687 a 21.213392,21.213362 0 0 0 14.2133,-20 21.213392,21.213362 0 0 0 -14.2133,-20 z m -2.00058,5.71373 -1.00033,2.85687 a 12.121941,12.12192 0 0 1 8.12274,11.4294 12.121941,12.12192 0 0 1 -8.12274,11.42743 l 1.00033,2.85884 a 15.152423,15.152397 0 0 0 10.15291,-14.28627 15.152423,15.152397 0 0 0 -10.15291,-14.28627 z m -1.99862,5.7137 -1.00029,2.85884 a 6.0609655,6.0609603 0 0 1 4.06035,5.71373 6.0609655,6.0609603 0 0 1 -4.06035,5.7137 l 0.99829,2.85686 a 9.0914562,9.0914407 0 0 0 6.09256,-8.57056 9.0914562,9.0914407 0 0 0 -6.09056,-8.57257 z"/><path style="color:#000;display:inline;overflow:visible;visibility:visible;opacity:1;fill:#757575;fill-opacity:1;fill-rule:evenodd;stroke:none;stroke-width:3.00000024;stroke-linecap:butt;stroke-linejoin:round;stroke-miterlimit:4;stroke-dasharray:none;stroke-dashoffset:4.19999981;stroke-opacity:1;marker:none;enable-background:accumulate" id="path9967" d="m 110.4595,138.56071 a 6.0000081,5.9999962 0 0 0 -5.99997,6 6.0000081,5.9999962 0 0 0 3.14453,5.27539 c -0.98116,3.12491 -2.025,7.9054 -3.14453,14.72461 h 11.99997 c -0.98449,-5.96836 -2.00092,-11.21423 -3.08394,-14.76369 a 6.0000081,5.9999962 0 0 0 3.08394,-5.23631 6.0000081,5.9999962 0 0 0 -6,-6 z"/></g></svg>