<svg xmlns="http://www.w3.org/2000/svg" xmlns:svg="http://www.w3.org/2000/svg" id="svg5502" width="48" height="48" version="1.1" viewBox="0 0 48 48"><metadata id="metadata5499"/><g id="layer1" transform="translate(-96.459526,-120.56071)"><path style="color:#000;display:inline;overflow:visible;visibility:visible;opacity:1;fill:#ff950d;fill-opacity:1;fill-rule:evenodd;stroke:none;stroke-width:3.89331555;stroke-linecap:butt;stroke-linejoin:round;stroke-miterlimit:4;stroke-dasharray:none;stroke-dashoffset:4.19999981;stroke-opacity:1;marker:none;enable-background:accumulate" id="rect11084" d="m 111.45951,137.56071 c -1.10801,0 -1.99998,0.89197 -1.99998,1.99998 v 10.00003 c 0,1.10797 0.89197,1.99997 1.99998,1.99997 h 12 c 1.10801,0 2.00002,-0.892 2.00002,-1.99997 v -3 l 6,4.99997 v -13.99998 l -6,4.99998 v -3 c 0,-1.10801 -0.89201,-1.99998 -2.00002,-1.99998 z"/><path style="color:#000;display:inline;overflow:visible;visibility:visible;opacity:1;fill:#747474;fill-opacity:1;fill-rule:evenodd;stroke:none;stroke-width:15.00000572;stroke-linecap:butt;stroke-linejoin:round;stroke-miterlimit:4;stroke-dasharray:none;stroke-dashoffset:4.19999981;stroke-opacity:1;marker:none;enable-background:accumulate" id="rect10711-8" d="m 104.45952,128.56071 c -2.21598,0 -3.99999,1.78398 -3.99999,3.99999 v 24.00001 c 0,2.21601 1.78401,3.99999 3.99999,3.99999 h 8.00001 v 2.00001 h 16 v -2.00001 h 8.00001 c 2.21601,0 3.99999,-1.78398 3.99999,-3.99999 V 132.5607 c 0,-2.21601 -1.78398,-3.99999 -3.99999,-3.99999 z m 0,3.99999 h 32.00002 v 24.00001 h -32.00002 z"/></g></svg>