<svg xmlns="http://www.w3.org/2000/svg" xmlns:svg="http://www.w3.org/2000/svg" id="svg5502" width="48" height="48" version="1.1" viewBox="0 0 48 48"><metadata id="metadata5499"/><g id="layer1" transform="translate(-96.459526,-120.56071)"><path style="display:inline;fill:#ff950d;fill-opacity:1;fill-rule:evenodd;stroke:none;stroke-width:.99999964px;stroke-linecap:butt;stroke-linejoin:miter;stroke-opacity:1" id="path10075" d="m 120.45955,130.56071 -18.00004,4.00002 v 0.99999 h 2.00001 v 3 h 32.00002 v -3 h 2.00001 v -0.99999 z"/><path style="display:inline;fill:#ff950d;fill-opacity:1;fill-rule:evenodd;stroke:none;stroke-width:.99999964px;stroke-linecap:butt;stroke-linejoin:miter;stroke-opacity:1" id="path10097" d="m 140.45953,158.56071 -3.99999,-4.00002 h -32.00002 l -3.99999,4.00002 z"/><rect id="rect7000" width="1.882" height="16" x="111.989" y="138.498" rx="4.571" ry="5.821" style="display:inline;fill:#00f;fill-opacity:1;fill-rule:nonzero;stroke:none;stroke-width:.99999964"/><rect id="rect7002" width="1.882" height="16" x="115.754" y="138.498" rx="4.571" ry="5.821" style="display:inline;fill:#e6e6e6;fill-opacity:1;fill-rule:nonzero;stroke:none;stroke-width:.99999964"/><rect id="rect7004" width="1.882" height="16" x="119.518" y="138.498" rx="4.571" ry="5.821" style="display:inline;fill:#e6e6e6;fill-opacity:1;fill-rule:nonzero;stroke:none;stroke-width:.99999964"/><rect id="rect7006" width="1.882" height="16" x="123.283" y="138.498" rx="4.571" ry="5.821" style="display:inline;fill:#e6e6e6;fill-opacity:1;fill-rule:nonzero;stroke:none;stroke-width:.99999964"/><rect id="rect7008" width="1.882" height="16" x="127.048" y="138.498" rx="4.571" ry="5.821" style="display:inline;fill:red;fill-opacity:1;fill-rule:nonzero;stroke:none;stroke-width:.99999964"/><rect id="rect7010" width="1.882" height="16" x="130.812" y="138.498" rx="4.571" ry="5.821" style="display:inline;fill:red;fill-opacity:1;fill-rule:nonzero;stroke:none;stroke-width:.99999964"/><rect id="rect7012" width="1.882" height="16" x="134.577" y="138.498" rx="4.571" ry="5.821" style="display:inline;fill:red;fill-opacity:1;fill-rule:nonzero;stroke:none;stroke-width:.99999964"/><rect id="rect7014" width="1.882" height="16" x="108.224" y="138.498" rx="4.571" ry="5.821" style="display:inline;fill:#00f;fill-opacity:1;fill-rule:nonzero;stroke:none;stroke-width:.99999964"/><rect id="rect7016" width="1.882" height="16" x="104.46" y="138.498" rx="4.571" ry="5.821" style="display:inline;fill:#00f;fill-opacity:1;fill-rule:nonzero;stroke:none;stroke-width:.99999964"/></g></svg>