<svg xmlns="http://www.w3.org/2000/svg" xmlns:svg="http://www.w3.org/2000/svg" id="svg5502" width="48" height="48" version="1.1" viewBox="0 0 48 48"><metadata id="metadata5499"/><g id="layer1" transform="translate(-96.459526,-120.56071)"><rect style="color:#000;display:inline;overflow:visible;visibility:visible;opacity:1;fill:#ff950d;fill-opacity:1;fill-rule:evenodd;stroke:none;stroke-width:3.00000072;stroke-linecap:butt;stroke-linejoin:round;stroke-miterlimit:4;stroke-dasharray:none;stroke-dashoffset:4.19999981;stroke-opacity:1;marker:none;enable-background:accumulate" id="rect10119" width="24" height="18" x="106.46" y="140.561" rx="4" ry="4"/><ellipse style="color:#000;display:inline;overflow:visible;visibility:visible;opacity:1;fill:#ff950d;fill-opacity:1;fill-rule:evenodd;stroke:none;stroke-width:3.00000072;stroke-linecap:butt;stroke-linejoin:round;stroke-miterlimit:4;stroke-dasharray:none;stroke-dashoffset:4.19999981;stroke-opacity:1;marker:none;enable-background:accumulate" id="path10121" cx="134.46" cy="145.561" rx="2" ry="2"/><ellipse style="color:#000;display:inline;overflow:visible;visibility:visible;opacity:1;fill:#ff950d;fill-opacity:1;fill-rule:evenodd;stroke:none;stroke-width:3.00000072;stroke-linecap:butt;stroke-linejoin:round;stroke-miterlimit:4;stroke-dasharray:none;stroke-dashoffset:4.19999981;stroke-opacity:1;marker:none;enable-background:accumulate" id="path10123" cx="134.46" cy="153.561" rx="2" ry="2"/><path style="color:#000;display:inline;overflow:visible;visibility:visible;opacity:1;fill:#747474;fill-opacity:1;fill-rule:evenodd;stroke:none;stroke-width:3.00000072;stroke-linecap:butt;stroke-linejoin:round;stroke-miterlimit:4;stroke-dasharray:none;stroke-dashoffset:4.19999981;stroke-opacity:1;marker:none;enable-background:accumulate" id="rect10117" d="m 106.45952,136.5607 c -2.21601,0 -3.99999,1.78401 -3.99999,4.00003 v 17.99998 c 0,2.21598 1.78398,3.99999 3.99999,3.99999 h 3.99999 c 0,1.10456 0.89545,2.00001 2.00002,2.00001 1.10457,0 2.00001,-0.89545 2.00001,-2.00001 h 12.00002 c 0,1.10456 0.8954,2.00001 1.99997,2.00001 1.10457,0 2.00002,-0.89545 2.00002,-2.00001 h 3.99999 c 2.21601,0 4.00003,-1.78401 4.00003,-3.99999 v -17.99998 c 0,-2.21602 -1.78402,-4.00003 -4.00003,-4.00003 z m 3.99999,4.00003 h 16.00005 c 2.21597,0 3.99999,1.78397 3.99999,3.99998 v 9.99998 c 0,2.21601 -1.78402,4.00002 -3.99999,4.00002 h -16.00005 c -2.21597,0 -3.99999,-1.78401 -3.99999,-4.00002 v -9.99998 c 0,-2.21601 1.78402,-3.99998 3.99999,-3.99998 z m 24.00003,2.99999 a 2.0000021,1.9999988 0 0 1 2.00001,1.99998 2.0000021,1.9999988 0 0 1 -2.00001,2.00001 2.0000021,1.9999988 0 0 1 -1.99998,-2.00001 2.0000021,1.9999988 0 0 1 1.99998,-1.99998 z m 0,7.99997 a 2.0000021,1.9999988 0 0 1 2.00001,2.00001 2.0000021,1.9999988 0 0 1 -2.00001,2.00002 2.0000021,1.9999988 0 0 1 -1.99998,-2.00002 2.0000021,1.9999988 0 0 1 1.99998,-2.00001 z"/><path style="display:inline;fill:#747474;fill-opacity:1;fill-rule:evenodd;stroke:none;stroke-width:1.00000012px;stroke-linecap:butt;stroke-linejoin:miter;stroke-opacity:1" id="path10130" d="m 116.45952,136.5607 -7.99998,-7.99997 9.99999,7.99997 z"/><path id="path10132" d="m 120.45955,136.5607 3.99999,-11.99999 -6.00001,11.99999 z" style="display:inline;fill:#747474;fill-opacity:1;fill-rule:evenodd;stroke:none;stroke-width:1.00000012px;stroke-linecap:butt;stroke-linejoin:miter;stroke-opacity:1"/><rect style="color:#000;display:inline;overflow:visible;visibility:visible;opacity:1;fill:red;fill-opacity:1;fill-rule:evenodd;stroke:none;stroke-width:3.00000072;stroke-linecap:butt;stroke-linejoin:round;stroke-miterlimit:4;stroke-dasharray:none;stroke-dashoffset:4.19999981;stroke-opacity:1;marker:none;enable-background:accumulate" id="rect10134" width="4" height="8" x="136.46" y="124.561" rx="0" ry="0"/><rect id="rect10138" width="4" height="8" x="132.46" y="124.561" rx="0" ry="0" style="color:#000;display:inline;overflow:visible;visibility:visible;opacity:1;fill:#fff;fill-opacity:1;fill-rule:evenodd;stroke:none;stroke-width:3.00000072;stroke-linecap:butt;stroke-linejoin:round;stroke-miterlimit:4;stroke-dasharray:none;stroke-dashoffset:4.19999981;stroke-opacity:1;marker:none;enable-background:accumulate"/><rect style="color:#000;display:inline;overflow:visible;visibility:visible;opacity:1;fill:#00f;fill-opacity:1;fill-rule:evenodd;stroke:none;stroke-width:3.00000072;stroke-linecap:butt;stroke-linejoin:round;stroke-miterlimit:4;stroke-dasharray:none;stroke-dashoffset:4.19999981;stroke-opacity:1;marker:none;enable-background:accumulate" id="rect10140" width="4" height="8" x="128.459" y="124.561" rx="0" ry="0"/></g></svg>