<svg xmlns="http://www.w3.org/2000/svg" xmlns:svg="http://www.w3.org/2000/svg" id="svg5502" width="48" height="48" version="1.1" viewBox="0 0 48 48"><metadata id="metadata5499"/><g id="layer1" transform="translate(-96.459526,-120.56071)"><path id="path10142" d="m 100.45953,138.77398 2.85884,1.00029 a 18.182899,18.182864 0 0 1 17.14118,-12.18306 18.182899,18.182864 0 0 1 17.14311,12.18306 l 2.85687,-1.00029 a 21.213382,21.213342 0 0 0 -19.99998,-14.21327 21.213382,21.213342 0 0 0 -20.00002,14.21327 z m 5.7137,2.00058 2.85687,1.00032 a 12.121932,12.121912 0 0 1 11.42945,-8.12272 12.121932,12.121912 0 0 1 11.42744,8.12272 l 2.85884,-1.00032 a 15.152411,15.152387 0 0 0 -14.28628,-10.1529 15.152411,15.152387 0 0 0 -14.28632,10.1529 z m 5.71374,1.99861 2.85884,1.00028 a 6.0609661,6.0609512 0 0 1 5.71374,-4.06034 6.0609661,6.0609512 0 0 1 5.7137,4.06034 l 2.85687,-0.99828 a 9.0914493,9.0914348 0 0 0 -8.57057,-6.09255 9.0914493,9.0914348 0 0 0 -8.57258,6.09055 z" style="color:#000;display:inline;overflow:visible;visibility:visible;opacity:1;fill:#ff950d;fill-opacity:1;fill-rule:evenodd;stroke:none;stroke-width:2.99999809;stroke-linecap:butt;stroke-linejoin:round;stroke-miterlimit:4;stroke-dasharray:none;stroke-dashoffset:4.19999981;stroke-opacity:1;marker:none;enable-background:accumulate"/><path style="display:inline;fill:#747474;fill-opacity:1;fill-rule:evenodd;stroke:none;stroke-width:.77514684;stroke-linecap:butt;stroke-linejoin:round;stroke-miterlimit:4;stroke-dasharray:none;stroke-opacity:1" id="path7098" d="m 120.54538,144.56069 -8.03977,2.2199 8.30158,3.41151 7.66492,-3.72982 z m 8.73298,2.43352 -8.04189,3.91411 v 13.54554 l 8.04189,-7.71517 z m -17.63766,0.32882 v 10.19265 l 8.76646,7.04503 V 150.9251 Z"/></g></svg>