<svg xmlns="http://www.w3.org/2000/svg" xmlns:svg="http://www.w3.org/2000/svg" id="svg5502" width="48" height="48" version="1.1" viewBox="0 0 48 48"><metadata id="metadata5499"/><g id="layer1" transform="translate(-96.459526,-120.56071)"><path style="color:#000;display:inline;overflow:visible;visibility:visible;opacity:1;fill:#ff950d;fill-opacity:1;fill-rule:evenodd;stroke:none;stroke-width:2.99999952;stroke-linecap:butt;stroke-linejoin:round;stroke-miterlimit:4;stroke-dasharray:none;stroke-dashoffset:4.19999981;stroke-opacity:1;marker:none;enable-background:accumulate" id="rect10441" d="m 104.45952,124.56071 c -2.21601,0 -3.99999,1.78401 -3.99999,4.00002 v 31.99996 c 0,2.21601 1.78398,4.00002 3.99999,4.00002 h 32.00002 c 2.21601,0 3.99999,-1.78401 3.99999,-4.00002 v -31.99996 c 0,-2.21601 -1.78398,-4.00002 -3.99999,-4.00002 z m 16.00003,3.49999 c 9.11267,0 16.49999,7.38731 16.49999,16.50001 0,9.1127 -7.38732,16.49997 -16.49999,16.49997 -9.11271,0 -16.50003,-7.38727 -16.50003,-16.49997 0,-9.1127 7.38732,-16.50001 16.50003,-16.50001 z m -3.65216,9.45717 c -0.1406,0.0265 -0.25474,0.0866 -0.34772,0.17952 -0.94907,0.94908 -0.92288,12.83459 0.0302,13.88825 0.13871,0.15345 0.34885,0.27779 0.46602,0.27779 0.80802,0 6.55823,-3.53351 9.1494,-5.62265 1.12203,-0.90462 1.27503,-1.08646 1.3149,-1.56211 0.0412,-0.49262 -0.0265,-0.60019 -0.82046,-1.27548 -2.40393,-2.04672 -5.10406,-3.88577 -7.55668,-5.14575 -1.14096,-0.58616 -1.81398,-0.81785 -2.23593,-0.73946 z"/></g></svg>