<svg xmlns="http://www.w3.org/2000/svg" xmlns:svg="http://www.w3.org/2000/svg" id="Capa_1" width="48" height="48" x="0" y="0" version="1.1" viewBox="0 0 48 48" xml:space="preserve"><metadata id="metadata3450"/><path style="fill:#1e201d" id="path3414" d="m 0.98605217,4.2419239 c -0.89082947,-0.8908295 -0.89082947,-2.3734687 0,-3.29544608 0.92197733,-0.89082942 2.37346873,-0.89082942 3.29544603,0 L 24.056251,20.754455 43.864228,0.94647782 c 0.89083,-0.89082942 2.373469,-0.89082942 3.262222,0 0.921977,0.92197738 0.921977,2.40669318 0,3.29544608 L 27.351697,24.018754 47.12645,43.826731 c 0.921977,0.890829 0.921977,2.373469 0,3.295446 -0.89083,0.890829 -2.373469,0.890829 -3.262222,0 L 24.056251,27.3142 4.2814982,47.122177 c -0.9219773,0.890829 -2.3734687,0.890829 -3.29544603,0 -0.89082947,-0.921977 -0.89082947,-2.406693 0,-3.295446 L 20.760805,24.018754 0.98605217,4.2419239 Z"/></svg>