<svg xmlns="http://www.w3.org/2000/svg" xmlns:svg="http://www.w3.org/2000/svg" id="Capa_1" width="48" height="48" x="0" y="0" version="1.1" viewBox="0 0 48 48" xml:space="preserve"><metadata id="metadata3584"/><g id="g3539" transform="matrix(1.4915254,0,0,1.4915254,0.64406779,0.13559322)"><g id="trash"><path style="fill:#010002" id="path3542" d="M 29.98,6.818 C 29.884,5.248 28.593,4.002 27,4.002 l -3,0 0,-1 L 24,3 C 24,1.343 22.656,0 21,0 L 11,0 C 9.343,0 8,1.343 8,3 l 0,10e-4 0,1 -3,0 c -1.595,0 -2.885,1.246 -2.981,2.816 L 2,6.817 2,8 2,9 c 0,1.104 0.896,2 2,2 l 0,0 0,17 c 0,2.209 1.791,4 4,4 l 16,0 c 2.209,0 4,-1.791 4,-4 l 0,-17 0,0 c 1.104,0 2,-0.896 2,-2 l 0,-1 0,-1.182 -0.02,0 z M 10,3.001 c 0,-0.553 0.447,-1 1,-1 l 10,0 c 0.553,0 1,0.447 1,1 l 0,1 -12,0 0,-1 z m 16,25 c 0,1.102 -0.898,2 -2,2 l -16,0 c -1.103,0 -2,-0.898 -2,-2 l 0,-17 20,0 0,17 z M 28,8 28,9 4,9 4,8 4,7.001 c 0,-0.553 0.447,-1 1,-1 l 22,0 c 0.553,0 1,0.447 1,1 L 28,8 Z"/><path style="fill:#010002" id="path3544" d="m 9,28.005 2,0 c 0.553,0 1,-0.447 1,-1 l 0,-13 c 0,-0.553 -0.447,-1 -1,-1 l -2,0 c -0.553,0 -1,0.447 -1,1 l 0,13 c 0,0.553 0.447,1 1,1 z m 0,-14.001 2,0 0,13 -2,0 0,-13 z"/><path style="fill:#010002" id="path3546" d="m 15,28.005 2,0 c 0.553,0 1,-0.447 1,-1 l 0,-13 c 0,-0.553 -0.447,-1 -1,-1 l -2,0 c -0.553,0 -1,0.447 -1,1 l 0,13 c 0,0.553 0.447,1 1,1 z m 0,-14.001 2,0 0,13 -2,0 0,-13 z"/><path style="fill:#010002" id="path3548" d="m 21,28.005 2,0 c 0.553,0 1,-0.447 1,-1 l 0,-13 c 0,-0.553 -0.447,-1 -1,-1 l -2,0 c -0.553,0 -1,0.447 -1,1 l 0,13 c 0,0.553 0.447,1 1,1 z m 0,-14.001 2,0 0,13 -2,0 0,-13 z"/></g></g></svg>