<svg xmlns="http://www.w3.org/2000/svg" xmlns:svg="http://www.w3.org/2000/svg" id="svg2" width="48" height="48" version="1.1" viewBox="0 0 48 48"><metadata id="metadata11"/><g id="surface1" transform="matrix(0,2.4101695,-2.4101695,0,78.802046,-37.322035)"><path style="fill:#000;fill-opacity:1;fill-rule:nonzero;stroke:none" id="path5" d="M 27,16.5 C 27,15.671875 26.328125,15 25.5,15 24.671875,15 24,15.671875 24,16.5 c 0,0.828125 0.671875,1.5 1.5,1.5 0.828125,0 1.5,-0.671875 1.5,-1.5 z m 0,6 C 27,21.671875 26.328125,21 25.5,21 24.671875,21 24,21.671875 24,22.5 c 0,0.828125 0.671875,1.5 1.5,1.5 0.828125,0 1.5,-0.671875 1.5,-1.5 z m 0,6 C 27,27.671875 26.328125,27 25.5,27 24.671875,27 24,27.671875 24,28.5 c 0,0.828125 0.671875,1.5 1.5,1.5 0.828125,0 1.5,-0.671875 1.5,-1.5 z m 0,0"/></g></svg>