<svg xmlns="http://www.w3.org/2000/svg" xmlns:svg="http://www.w3.org/2000/svg" id="svg2" width="48" height="48" version="1.1" viewBox="0 0 48 48"><metadata id="metadata7"/><g id="layer1" transform="translate(-384,-1004.3622)" style="display:inline"><g id="g846" transform="translate(0,0.01225493)"><path id="path820" d="m 412.00164,1016.3547 a 4.0016403,4.0016403 0 0 1 -3.99464,4.0016 4.0016403,4.0016403 0 0 1 -4.00862,-3.9876 4.0016403,4.0016403 0 0 1 3.98062,-4.0156 4.0016403,4.0016403 0 0 1 4.02254,3.9736" style="fill:#000;fill-opacity:1;stroke:none;stroke-width:1.21430206;stroke-miterlimit:4;stroke-dasharray:none;stroke-opacity:1"/><path id="path820-3" d="m 412.00164,1028.35 a 4.0016403,4.0016403 0 0 1 -3.99464,4.0016 4.0016403,4.0016403 0 0 1 -4.00862,-3.9876 4.0016403,4.0016403 0 0 1 3.98062,-4.0156 4.0016403,4.0016403 0 0 1 4.02254,3.9736" style="display:inline;fill:#000;fill-opacity:1;stroke:none;stroke-width:1.21430206;stroke-miterlimit:4;stroke-dasharray:none;stroke-opacity:1"/><path id="path820-6" d="m 412.00164,1040.3452 a 4.0016403,4.0016403 0 0 1 -3.99464,4.0016 4.0016403,4.0016403 0 0 1 -4.00862,-3.9876 4.0016403,4.0016403 0 0 1 3.98062,-4.0156 4.0016403,4.0016403 0 0 1 4.02254,3.9736" style="display:inline;fill:#000;fill-opacity:1;stroke:none;stroke-width:1.21430206;stroke-miterlimit:4;stroke-dasharray:none;stroke-opacity:1"/></g></g></svg>