<svg xmlns="http://www.w3.org/2000/svg" xmlns:svg="http://www.w3.org/2000/svg" id="svg5502" width="48" height="48" version="1.1" viewBox="0 0 48 48"><metadata id="metadata5499"/><g id="layer1" transform="translate(-96.459526,-120.56071)"><path style="color:#000;display:inline;overflow:visible;visibility:visible;opacity:1;fill:#000;fill-opacity:1;fill-rule:nonzero;stroke:none;stroke-width:2.00000024;stroke-linecap:round;stroke-linejoin:round;stroke-miterlimit:3.70000005;stroke-dasharray:none;stroke-dashoffset:0;stroke-opacity:1;marker:none;enable-background:accumulate" id="path11061" d="m 104.45953,128.56071 v 32 h 2 v -4 l 5.00002,1e-5 v 3.99999 h 9 9 v -3.99999 l 4.99998,-1e-5 v 3.99999 l 2,1e-5 v -32 h -2 v 4 l -4.99998,-1e-5 v -3.99999 h -9 -9.00002 v 4 h -5 v -4 z m 2,7 h 5 v 4 h -5 z m 23.00002,-1e-5 4.99998,1e-5 v 4 l -4.99998,-2e-5 z m -23.00002,7.00001 5.00002,-1e-5 v 4.00002 l -5.00002,-1e-5 z m 23.00002,-1e-5 4.99998,1e-5 v 4 l -4.99998,1e-5 z m -23.00002,7.00001 5.00002,2e-5 v 3.99999 l -5.00002,-1e-5 z m 23.00002,2e-5 4.99998,-2e-5 v 4 l -4.99998,1e-5 z"/></g></svg>