<svg xmlns="http://www.w3.org/2000/svg" xmlns:svg="http://www.w3.org/2000/svg" id="svg2" width="48" height="48" version="1.1" viewBox="0 0 48 48"><metadata id="metadata7"/><g id="layer1" transform="translate(-384,-1004.3622)" style="display:inline"><path id="path17292" d="m 404.5293,1016.3627 c 0.21705,0.01 0.42615,0.083 0.5957,0.2188 l 11.875,9.4988 v -8.7157 c 0,-0.554 0.446,-0.9999 1,-0.9999 h 7 c 0.554,0 1,0.4459 1,0.9999 v 21.9972 c 0,0.554 -0.446,0.9999 -1,0.9999 h -7 c -0.554,0 -1,-0.4459 -1,-0.9999 v -8.7216 l -11.875,9.4988 c -0.65423,0.5237 -1.62379,0.059 -1.625,-0.7792 v -8.7176 l -11.875,9.4988 c -0.65423,0.5237 -1.62379,0.059 -1.625,-0.7792 v -21.9992 c 8.9e-4,-0.5631 0.46639,-1.0144 1.0293,-0.9979 0.21705,0.01 0.42615,0.083 0.5957,0.2188 l 11.875,9.4988 v -8.7216 c 8.9e-4,-0.5632 0.46639,-1.0144 1.0293,-0.998 z M 419,1038.3619 h 5 v -19.9975 h -5 z m -13.5,-1.0838 11.15039,-8.9169 L 405.5,1019.4424 Z M 392,1019.4444 v 17.8357 l 11.15039,-8.9169 z" style="color:#000;display:inline;overflow:visible;visibility:visible;opacity:1;fill:#747474;fill-opacity:1;fill-rule:nonzero;stroke:none;stroke-width:.99993795;stroke-linecap:round;stroke-linejoin:round;stroke-miterlimit:4;stroke-dasharray:none;stroke-dashoffset:0;stroke-opacity:1;marker:none;enable-background:accumulate"/><path id="path17294" d="m 424,1018.3617 v 20 h -5 v -20 z m -18.5,1.0801 11.15039,8.9199 -11.15039,8.918 z m -13.5,0 11.15039,8.9199 -11.15039,8.918 z" style="display:inline;opacity:1;fill:#eee;fill-opacity:1;fill-rule:evenodd;stroke:none;stroke-width:1px;stroke-linecap:butt;stroke-linejoin:miter;stroke-opacity:1"/></g></svg>