<svg xmlns="http://www.w3.org/2000/svg" xmlns:svg="http://www.w3.org/2000/svg" id="svg2" width="48" height="48" version="1.1" viewBox="0 0 48 48"><metadata id="metadata7"/><g id="layer1" transform="translate(-384,-1004.3622)" style="display:inline"><g id="g892" transform="matrix(0.92857143,0,0,0.92857143,29.142857,72.990164)"><path id="path819" d="m 388,1016.3622 v 25" style="fill:none;fill-rule:evenodd;stroke:#000;stroke-width:3;stroke-linecap:butt;stroke-linejoin:miter;stroke-miterlimit:4;stroke-dasharray:none;stroke-opacity:1"/><path id="path821" d="m 392,1012.3622 h 11 l 4.99999,5 H 424" style="fill:none;fill-rule:evenodd;stroke:#000;stroke-width:3;stroke-linecap:butt;stroke-linejoin:miter;stroke-miterlimit:4;stroke-dasharray:none;stroke-opacity:1"/><path id="path823" d="m 428,1021.3622 v 20" style="fill:none;fill-rule:evenodd;stroke:#000;stroke-width:3;stroke-linecap:butt;stroke-linejoin:miter;stroke-miterlimit:4;stroke-dasharray:none;stroke-opacity:1"/><path id="path825" d="M 424,1045.3622 H 392" style="fill:none;fill-rule:evenodd;stroke:#000;stroke-width:3;stroke-linecap:butt;stroke-linejoin:miter;stroke-miterlimit:4;stroke-dasharray:none;stroke-opacity:1"/><path id="path827" d="m 392,1045.3622 a 4,4 0 0 1 -2.82843,-1.1716 A 4,4 0 0 1 388,1041.3622" style="fill:none;fill-opacity:1;stroke:#000;stroke-width:3;stroke-linecap:butt;stroke-linejoin:miter;stroke-miterlimit:4;stroke-dasharray:none;stroke-dashoffset:0;stroke-opacity:1"/><path id="path827-3" d="m 392,-1012.3622 a 4,4 0 0 1 -2.82843,-1.1716 4,4 0 0 1 -1.17157,-2.8284" transform="scale(1,-1)" style="display:inline;fill:none;fill-opacity:1;stroke:#000;stroke-width:3;stroke-linecap:butt;stroke-linejoin:miter;stroke-miterlimit:4;stroke-dasharray:none;stroke-dashoffset:0;stroke-opacity:1"/><path id="path827-3-6" d="m 1021.3622,428 a 4,4 0 0 1 -2.8284,-1.17157 A 4,4 0 0 1 1017.3622,424" transform="matrix(0,1,1,0,0,0)" style="display:inline;fill:none;fill-opacity:1;stroke:#000;stroke-width:3;stroke-linecap:butt;stroke-linejoin:miter;stroke-miterlimit:4;stroke-dasharray:none;stroke-dashoffset:0;stroke-opacity:1"/><path id="path827-3-7" d="m -424,1045.3622 a 4,4 0 0 1 -2.82843,-1.1716 4,4 0 0 1 -1.17157,-2.8284" transform="scale(-1,1)" style="display:inline;fill:none;fill-opacity:1;stroke:#000;stroke-width:3;stroke-linecap:butt;stroke-linejoin:miter;stroke-miterlimit:4;stroke-dasharray:none;stroke-dashoffset:0;stroke-opacity:1"/></g></g></svg>